solid OpenSCAD_Model
  facet normal 0 0 1
    outer loop
      vertex -21.6111 22.1629 22.001
      vertex -21.0492 22.4133 22.001
      vertex -21.2654 22.3478 22.001
    endloop
  endfacet
  facet normal 0 0 1
    outer loop
      vertex 21.0492 22.4133 22.001
      vertex 22.5 20.5 22.001
      vertex 22.4616 20.8902 22.001
    endloop
  endfacet
  facet normal 0 0 1
    outer loop
      vertex 22.5 20.5 22.001
      vertex 21.0492 -20.4 22.001
      vertex 22.5 -20.5 22.001
    endloop
  endfacet
  facet normal 0 0 1
    outer loop
      vertex 21.0492 22.4133 22.001
      vertex 22.4616 20.8902 22.001
      vertex 22.3478 21.2654 22.001
    endloop
  endfacet
  facet normal 0 0 1
    outer loop
      vertex 22.5 -20.5 22.001
      vertex 21.0492 -20.4 22.001
      vertex 22.4616 -20.8902 22.001
    endloop
  endfacet
  facet normal 0 0 1
    outer loop
      vertex 21.0492 22.4133 22.001
      vertex 22.3478 21.2654 22.001
      vertex 22.1629 21.6111 22.001
    endloop
  endfacet
  facet normal 0 0 1
    outer loop
      vertex 22.4616 -20.8902 22.001
      vertex 21.0492 -20.4 22.001
      vertex 22.3478 -21.2654 22.001
    endloop
  endfacet
  facet normal 0 0 1
    outer loop
      vertex 21.0492 22.4133 22.001
      vertex 22.1629 21.6111 22.001
      vertex 21.9142 21.9142 22.001
    endloop
  endfacet
  facet normal 0 0 1
    outer loop
      vertex 22.3478 -21.2654 22.001
      vertex 21.0492 -20.4 22.001
      vertex 22.1629 -21.6111 22.001
    endloop
  endfacet
  facet normal 0 0 1
    outer loop
      vertex 21.0492 22.4133 22.001
      vertex 21.9142 21.9142 22.001
      vertex 21.6111 22.1629 22.001
    endloop
  endfacet
  facet normal 0 0 1
    outer loop
      vertex 22.1629 -21.6111 22.001
      vertex 21.0492 -20.4 22.001
      vertex 21.9142 -21.9142 22.001
    endloop
  endfacet
  facet normal 0 0 1
    outer loop
      vertex 21.0492 22.4133 22.001
      vertex 21.6111 22.1629 22.001
      vertex 21.2654 22.3478 22.001
    endloop
  endfacet
  facet normal 0 0 1
    outer loop
      vertex 21.9142 -21.9142 22.001
      vertex 21.0492 -20.4 22.001
      vertex 21.6111 -22.1629 22.001
    endloop
  endfacet
  facet normal 0 0 1
    outer loop
      vertex 22.5 20.5 22.001
      vertex 21.0492 22.4133 22.001
      vertex 21.0492 -20.4 22.001
    endloop
  endfacet
  facet normal 0 0 1
    outer loop
      vertex 21.6111 -22.1629 22.001
      vertex 21.0492 -20.4 22.001
      vertex 21.2654 -22.3478 22.001
    endloop
  endfacet
  facet normal 0 0 1
    outer loop
      vertex 21.0492 -20.4 22.001
      vertex 20.8902 -22.4616 22.001
      vertex 21.2654 -22.3478 22.001
    endloop
  endfacet
  facet normal 0 0 1
    outer loop
      vertex 21.0492 -20.4 22.001
      vertex 20.5 -22.5 22.001
      vertex 20.8902 -22.4616 22.001
    endloop
  endfacet
  facet normal 0 0 1
    outer loop
      vertex 21.0492 -20.4 22.001
      vertex -20.5 -22.5 22.001
      vertex 20.5 -22.5 22.001
    endloop
  endfacet
  facet normal -0 0 1
    outer loop
      vertex -21.0492 -20.4 22.001
      vertex -20.5 -22.5 22.001
      vertex 21.0492 -20.4 22.001
    endloop
  endfacet
  facet normal 0 0 1
    outer loop
      vertex -20.5 -22.5 22.001
      vertex -21.0492 -20.4 22.001
      vertex -20.8902 -22.4616 22.001
    endloop
  endfacet
  facet normal 0 0 1
    outer loop
      vertex -21.0492 -20.4 22.001
      vertex -21.2654 -22.3478 22.001
      vertex -20.8902 -22.4616 22.001
    endloop
  endfacet
  facet normal 0 0 1
    outer loop
      vertex -21.0492 22.4133 22.001
      vertex -22.5 20.5 22.001
      vertex -21.0492 -20.4 22.001
    endloop
  endfacet
  facet normal 0 0 1
    outer loop
      vertex -21.9142 21.9142 22.001
      vertex -21.0492 22.4133 22.001
      vertex -21.6111 22.1629 22.001
    endloop
  endfacet
  facet normal 0 0 1
    outer loop
      vertex -22.5 -20.5 22.001
      vertex -21.0492 -20.4 22.001
      vertex -22.5 20.5 22.001
    endloop
  endfacet
  facet normal 0 0 1
    outer loop
      vertex -21.0492 22.4133 22.001
      vertex -21.9142 21.9142 22.001
      vertex -22.5 20.5 22.001
    endloop
  endfacet
  facet normal 0 -0 1
    outer loop
      vertex -22.4616 -20.8902 22.001
      vertex -21.0492 -20.4 22.001
      vertex -22.5 -20.5 22.001
    endloop
  endfacet
  facet normal 0 0 1
    outer loop
      vertex -22.5 20.5 22.001
      vertex -21.9142 21.9142 22.001
      vertex -22.1629 21.6111 22.001
    endloop
  endfacet
  facet normal 0 0 1
    outer loop
      vertex -21.0492 -20.4 22.001
      vertex -21.6111 -22.1629 22.001
      vertex -21.2654 -22.3478 22.001
    endloop
  endfacet
  facet normal 0 0 1
    outer loop
      vertex -22.5 20.5 22.001
      vertex -22.1629 21.6111 22.001
      vertex -22.3478 21.2654 22.001
    endloop
  endfacet
  facet normal 0 0 1
    outer loop
      vertex -21.0492 -20.4 22.001
      vertex -21.9142 -21.9142 22.001
      vertex -21.6111 -22.1629 22.001
    endloop
  endfacet
  facet normal 0 0 1
    outer loop
      vertex -22.5 20.5 22.001
      vertex -22.3478 21.2654 22.001
      vertex -22.4616 20.8902 22.001
    endloop
  endfacet
  facet normal 0 0 1
    outer loop
      vertex -21.0492 -20.4 22.001
      vertex -22.1629 -21.6111 22.001
      vertex -21.9142 -21.9142 22.001
    endloop
  endfacet
  facet normal 0 0 1
    outer loop
      vertex -21.0492 -20.4 22.001
      vertex -22.3478 -21.2654 22.001
      vertex -22.1629 -21.6111 22.001
    endloop
  endfacet
  facet normal 0 0 1
    outer loop
      vertex -21.0492 -20.4 22.001
      vertex -22.4616 -20.8902 22.001
      vertex -22.3478 -21.2654 22.001
    endloop
  endfacet
  facet normal 0 -1 0
    outer loop
      vertex -20.5 -22.5 20
      vertex 20.5 -22.5 22.001
      vertex -20.5 -22.5 22.001
    endloop
  endfacet
  facet normal 0 -1 0
    outer loop
      vertex -20.5 -22.5 20
      vertex 20.5 -22.5 20
      vertex 20.5 -22.5 22.001
    endloop
  endfacet
  facet normal 0 -1 0
    outer loop
      vertex -20.5 -22.5 0
      vertex 20.5 -22.5 20
      vertex -20.5 -22.5 20
    endloop
  endfacet
  facet normal 0 -1 -0
    outer loop
      vertex 20.5 -22.5 20
      vertex -20.5 -22.5 0
      vertex 20.5 -22.5 0
    endloop
  endfacet
  facet normal -0.0980167 -0.995185 0
    outer loop
      vertex -20.8902 -22.4616 20
      vertex -20.5 -22.5 22.001
      vertex -20.8902 -22.4616 22.001
    endloop
  endfacet
  facet normal -0.0980167 -0.995185 -0
    outer loop
      vertex -20.5 -22.5 22.001
      vertex -20.8902 -22.4616 20
      vertex -20.5 -22.5 20
    endloop
  endfacet
  facet normal -0.956939 -0.290288 0
    outer loop
      vertex -22.396 -21.1065 20
      vertex -22.4616 -20.8902 22.001
      vertex -22.4616 -20.8902 20
    endloop
  endfacet
  facet normal -0.956941 -0.290282 -0
    outer loop
      vertex -22.3478 -21.2654 22.001
      vertex -22.396 -21.1065 20
      vertex -22.3478 -21.2654 20
    endloop
  endfacet
  facet normal -0.95694 -0.290286 -3.4315e-007
    outer loop
      vertex -22.396 -21.1065 20
      vertex -22.3478 -21.2654 22.001
      vertex -22.4616 -20.8902 22.001
    endloop
  endfacet
  facet normal -0.773013 -0.63439 0
    outer loop
      vertex -22.0778 -21.7149 20
      vertex -22.1629 -21.6111 22.001
      vertex -22.1629 -21.6111 20
    endloop
  endfacet
  facet normal -0.773007 -0.634397 -0
    outer loop
      vertex -21.9142 -21.9142 22.001
      vertex -22.0778 -21.7149 20
      vertex -21.9142 -21.9142 20
    endloop
  endfacet
  facet normal -0.773009 -0.634395 4.02334e-007
    outer loop
      vertex -22.0778 -21.7149 20
      vertex -21.9142 -21.9142 22.001
      vertex -22.1629 -21.6111 22.001
    endloop
  endfacet
  facet normal -0.88192 -0.4714 0
    outer loop
      vertex -22.2419 -21.4635 20
      vertex -22.3478 -21.2654 22.001
      vertex -22.3478 -21.2654 20
    endloop
  endfacet
  facet normal -0.881925 -0.471389 -0
    outer loop
      vertex -22.1629 -21.6111 22.001
      vertex -22.2419 -21.4635 20
      vertex -22.1629 -21.6111 20
    endloop
  endfacet
  facet normal -0.881922 -0.471395 -5.63026e-007
    outer loop
      vertex -22.2419 -21.4635 20
      vertex -22.1629 -21.6111 22.001
      vertex -22.3478 -21.2654 22.001
    endloop
  endfacet
  facet normal -0.634397 -0.773007 0
    outer loop
      vertex -21.7149 -22.0778 20
      vertex -21.9142 -21.9142 22.001
      vertex -21.9142 -21.9142 20
    endloop
  endfacet
  facet normal -0.634395 -0.773009 4.02334e-007
    outer loop
      vertex -21.9142 -21.9142 22.001
      vertex -21.7149 -22.0778 20
      vertex -21.6111 -22.1629 22.001
    endloop
  endfacet
  facet normal -0.63439 -0.773013 -0
    outer loop
      vertex -21.6111 -22.1629 22.001
      vertex -21.7149 -22.0778 20
      vertex -21.6111 -22.1629 20
    endloop
  endfacet
  facet normal -0.471389 -0.881925 0
    outer loop
      vertex -21.4635 -22.2419 20
      vertex -21.6111 -22.1629 22.001
      vertex -21.6111 -22.1629 20
    endloop
  endfacet
  facet normal -0.471395 -0.881922 -5.63026e-007
    outer loop
      vertex -21.6111 -22.1629 22.001
      vertex -21.4635 -22.2419 20
      vertex -21.2654 -22.3478 22.001
    endloop
  endfacet
  facet normal -0.4714 -0.88192 -0
    outer loop
      vertex -21.2654 -22.3478 22.001
      vertex -21.4635 -22.2419 20
      vertex -21.2654 -22.3478 20
    endloop
  endfacet
  facet normal -0.995185 -0.0980167 0
    outer loop
      vertex -22.4616 -20.8902 20
      vertex -22.5 -20.5 22.001
      vertex -22.5 -20.5 20
    endloop
  endfacet
  facet normal -0.995185 -0.0980167 0
    outer loop
      vertex -22.5 -20.5 22.001
      vertex -22.4616 -20.8902 20
      vertex -22.4616 -20.8902 22.001
    endloop
  endfacet
  facet normal 0.4714 -0.88192 0
    outer loop
      vertex 21.4635 -22.2419 20
      vertex 21.2654 -22.3478 22.001
      vertex 21.2654 -22.3478 20
    endloop
  endfacet
  facet normal 0.471395 -0.881922 -5.63026e-007
    outer loop
      vertex 21.2654 -22.3478 22.001
      vertex 21.4635 -22.2419 20
      vertex 21.6111 -22.1629 22.001
    endloop
  endfacet
  facet normal 0.471389 -0.881925 0
    outer loop
      vertex 21.6111 -22.1629 22.001
      vertex 21.4635 -22.2419 20
      vertex 21.6111 -22.1629 20
    endloop
  endfacet
  facet normal 0.63439 -0.773013 0
    outer loop
      vertex 21.7149 -22.0778 20
      vertex 21.6111 -22.1629 22.001
      vertex 21.6111 -22.1629 20
    endloop
  endfacet
  facet normal 0.634395 -0.773009 4.02334e-007
    outer loop
      vertex 21.6111 -22.1629 22.001
      vertex 21.7149 -22.0778 20
      vertex 21.9142 -21.9142 22.001
    endloop
  endfacet
  facet normal 0.634397 -0.773007 0
    outer loop
      vertex 21.9142 -21.9142 22.001
      vertex 21.7149 -22.0778 20
      vertex 21.9142 -21.9142 20
    endloop
  endfacet
  facet normal 0.995185 -0.0980167 0
    outer loop
      vertex 22.4616 -20.8902 22.001
      vertex 22.5 -20.5 20
      vertex 22.5 -20.5 22.001
    endloop
  endfacet
  facet normal 0.995185 -0.0980167 0
    outer loop
      vertex 22.5 -20.5 20
      vertex 22.4616 -20.8902 22.001
      vertex 22.4616 -20.8902 20
    endloop
  endfacet
  facet normal 1 0 0
    outer loop
      vertex 22.5 -20.5 20
      vertex 22.5 20.5 20
      vertex 22.5 20.5 22.001
    endloop
  endfacet
  facet normal 1 0 0
    outer loop
      vertex 22.5 -20.5 20
      vertex 22.5 20.5 22.001
      vertex 22.5 -20.5 22.001
    endloop
  endfacet
  facet normal 1 0 0
    outer loop
      vertex 22.5 20.5 20
      vertex 22.5 -20.5 20
      vertex 22.5 20.5 0
    endloop
  endfacet
  facet normal 1 0 0
    outer loop
      vertex 22.5 20.5 0
      vertex 22.5 -20.5 20
      vertex 22.5 -20.5 0
    endloop
  endfacet
  facet normal -0.773007 0.634397 0
    outer loop
      vertex -22.0778 21.7149 20
      vertex -21.9142 21.9142 22.001
      vertex -21.9142 21.9142 20
    endloop
  endfacet
  facet normal -0.773013 0.63439 0
    outer loop
      vertex -22.1629 21.6111 22.001
      vertex -22.0778 21.7149 20
      vertex -22.1629 21.6111 20
    endloop
  endfacet
  facet normal -0.773009 0.634395 4.02334e-007
    outer loop
      vertex -22.0778 21.7149 20
      vertex -22.1629 21.6111 22.001
      vertex -21.9142 21.9142 22.001
    endloop
  endfacet
  facet normal -0.471395 0.881922 0
    outer loop
      vertex -21.2654 22.3478 21.3361
      vertex -21.6111 22.1629 22.001
      vertex -21.2654 22.3478 22.001
    endloop
  endfacet
  facet normal -0.471395 0.881922 0
    outer loop
      vertex -21.6111 22.1629 22.001
      vertex -21.2654 22.3478 21.3361
      vertex -21.6111 22.1629 20.2728
    endloop
  endfacet
  facet normal -0.290282 -0.956941 0
    outer loop
      vertex -21.1065 -22.396 20
      vertex -21.2654 -22.3478 22.001
      vertex -21.2654 -22.3478 20
    endloop
  endfacet
  facet normal -0.290286 -0.95694 -3.4315e-007
    outer loop
      vertex -21.2654 -22.3478 22.001
      vertex -21.1065 -22.396 20
      vertex -20.8902 -22.4616 22.001
    endloop
  endfacet
  facet normal -0.290288 -0.956939 -0
    outer loop
      vertex -20.8902 -22.4616 22.001
      vertex -21.1065 -22.396 20
      vertex -20.8902 -22.4616 20
    endloop
  endfacet
  facet normal 0.290288 -0.956939 0
    outer loop
      vertex 21.1065 -22.396 20
      vertex 20.8902 -22.4616 22.001
      vertex 20.8902 -22.4616 20
    endloop
  endfacet
  facet normal 0.290286 -0.95694 -3.4315e-007
    outer loop
      vertex 20.8902 -22.4616 22.001
      vertex 21.1065 -22.396 20
      vertex 21.2654 -22.3478 22.001
    endloop
  endfacet
  facet normal 0.290282 -0.956941 0
    outer loop
      vertex 21.2654 -22.3478 22.001
      vertex 21.1065 -22.396 20
      vertex 21.2654 -22.3478 20
    endloop
  endfacet
  facet normal 0.0980167 -0.995185 0
    outer loop
      vertex 20.5 -22.5 20
      vertex 20.8902 -22.4616 22.001
      vertex 20.5 -22.5 22.001
    endloop
  endfacet
  facet normal 0.0980167 -0.995185 0
    outer loop
      vertex 20.8902 -22.4616 22.001
      vertex 20.5 -22.5 20
      vertex 20.8902 -22.4616 20
    endloop
  endfacet
  facet normal -1 0 0
    outer loop
      vertex -22.5 -20.5 20
      vertex -22.5 20.5 20
      vertex -22.5 20.5 0
    endloop
  endfacet
  facet normal -1 0 0
    outer loop
      vertex -22.5 -20.5 20
      vertex -22.5 20.5 0
      vertex -22.5 -20.5 0
    endloop
  endfacet
  facet normal -1 0 0
    outer loop
      vertex -22.5 20.5 20
      vertex -22.5 -20.5 20
      vertex -22.5 20.5 22.001
    endloop
  endfacet
  facet normal -1 -0 0
    outer loop
      vertex -22.5 20.5 22.001
      vertex -22.5 -20.5 20
      vertex -22.5 -20.5 22.001
    endloop
  endfacet
  facet normal -0 0 1
    outer loop
      vertex -20.5 22.5 20
      vertex 20.5 20.5 20
      vertex 20.5 22.5 20
    endloop
  endfacet
  facet normal 0 0 1
    outer loop
      vertex -20.5 22.5 20
      vertex -20.5 20.5 20
      vertex 20.5 20.5 20
    endloop
  endfacet
  facet normal -0 0 1
    outer loop
      vertex -20.8902 22.4616 20
      vertex -20.5 20.5 20
      vertex -20.5 22.5 20
    endloop
  endfacet
  facet normal -0 0 1
    outer loop
      vertex -21.2654 22.3478 20
      vertex -20.5 20.5 20
      vertex -20.8902 22.4616 20
    endloop
  endfacet
  facet normal -0 0 1
    outer loop
      vertex -21.6111 22.1629 20
      vertex -20.5 20.5 20
      vertex -21.2654 22.3478 20
    endloop
  endfacet
  facet normal 0 0 1
    outer loop
      vertex -20.5 20.5 20
      vertex -21.6111 22.1629 20
      vertex -21.6998 22.0901 20
    endloop
  endfacet
  facet normal 0 0 1
    outer loop
      vertex -21.6998 -20.4 20
      vertex -20.5 20.5 20
      vertex -21.6998 22.0901 20
    endloop
  endfacet
  facet normal 0 0 1
    outer loop
      vertex -20.5 20.5 20
      vertex -21.6998 -20.4 20
      vertex -20.5 -20.4 20
    endloop
  endfacet
  facet normal 0 0 1
    outer loop
      vertex 20.5 20.5 20
      vertex 21.6998 22.0901 20
      vertex 21.6111 22.1629 20
    endloop
  endfacet
  facet normal 0 0 1
    outer loop
      vertex 20.5 20.5 20
      vertex 21.6111 22.1629 20
      vertex 21.2654 22.3478 20
    endloop
  endfacet
  facet normal 0 0 1
    outer loop
      vertex 20.5 20.5 20
      vertex 21.2654 22.3478 20
      vertex 20.8902 22.4616 20
    endloop
  endfacet
  facet normal 0 0 1
    outer loop
      vertex 20.5 20.5 20
      vertex 20.8902 22.4616 20
      vertex 20.5 22.5 20
    endloop
  endfacet
  facet normal 0 0 1
    outer loop
      vertex 21.6998 22.0901 20
      vertex 20.5 20.5 20
      vertex 21.6998 -20.4 20
    endloop
  endfacet
  facet normal 0 0 1
    outer loop
      vertex 21.6998 -20.4 20
      vertex 20.5 20.5 20
      vertex 20.5 -20.4 20
    endloop
  endfacet
  facet normal 0 0 -1
    outer loop
      vertex -20.5 -20.5 20
      vertex 20.5 -20.4 20
      vertex 20.5 -20.5 20
    endloop
  endfacet
  facet normal -0 0 -1
    outer loop
      vertex 20.5 -20.4 20
      vertex -20.5 -20.5 20
      vertex -20.5 -20.4 20
    endloop
  endfacet
  facet normal -0.995185 0.0980167 0
    outer loop
      vertex -22.5 20.5 20
      vertex -22.4616 20.8902 22.001
      vertex -22.4616 20.8902 20
    endloop
  endfacet
  facet normal -0.995185 0.0980167 0
    outer loop
      vertex -22.4616 20.8902 22.001
      vertex -22.5 20.5 20
      vertex -22.5 20.5 22.001
    endloop
  endfacet
  facet normal -0.634395 0.773009 0
    outer loop
      vertex -21.6111 22.1629 20.2728
      vertex -21.9142 21.9142 22.001
      vertex -21.6111 22.1629 22.001
    endloop
  endfacet
  facet normal -0.634327 0.773065 -4.03196e-005
    outer loop
      vertex -21.7149 22.0778 20
      vertex -21.6111 22.1629 20.2728
      vertex -21.6998 22.0901 20
    endloop
  endfacet
  facet normal -0.634397 0.773007 4.48884e-006
    outer loop
      vertex -21.9142 21.9142 20
      vertex -21.6111 22.1629 20.2728
      vertex -21.7149 22.0778 20
    endloop
  endfacet
  facet normal -0.634395 0.773009 0
    outer loop
      vertex -21.6111 22.1629 20.2728
      vertex -21.9142 21.9142 20
      vertex -21.9142 21.9142 22.001
    endloop
  endfacet
  facet normal 0.773007 0.634397 0
    outer loop
      vertex 21.9142 21.9142 22.001
      vertex 22.0778 21.7149 20
      vertex 21.9142 21.9142 20
    endloop
  endfacet
  facet normal 0.773009 0.634395 4.02334e-007
    outer loop
      vertex 22.1629 21.6111 22.001
      vertex 22.0778 21.7149 20
      vertex 21.9142 21.9142 22.001
    endloop
  endfacet
  facet normal 0.773013 0.63439 0
    outer loop
      vertex 22.0778 21.7149 20
      vertex 22.1629 21.6111 22.001
      vertex 22.1629 21.6111 20
    endloop
  endfacet
  facet normal 0.88192 -0.4714 0
    outer loop
      vertex 22.3478 -21.2654 22.001
      vertex 22.2419 -21.4635 20
      vertex 22.3478 -21.2654 20
    endloop
  endfacet
  facet normal 0.881922 -0.471395 -5.63026e-007
    outer loop
      vertex 22.1629 -21.6111 22.001
      vertex 22.2419 -21.4635 20
      vertex 22.3478 -21.2654 22.001
    endloop
  endfacet
  facet normal 0.881925 -0.471389 0
    outer loop
      vertex 22.2419 -21.4635 20
      vertex 22.1629 -21.6111 22.001
      vertex 22.1629 -21.6111 20
    endloop
  endfacet
  facet normal 0.773013 -0.63439 0
    outer loop
      vertex 22.1629 -21.6111 22.001
      vertex 22.0778 -21.7149 20
      vertex 22.1629 -21.6111 20
    endloop
  endfacet
  facet normal 0.773009 -0.634395 4.02334e-007
    outer loop
      vertex 21.9142 -21.9142 22.001
      vertex 22.0778 -21.7149 20
      vertex 22.1629 -21.6111 22.001
    endloop
  endfacet
  facet normal 0.773007 -0.634397 0
    outer loop
      vertex 22.0778 -21.7149 20
      vertex 21.9142 -21.9142 22.001
      vertex 21.9142 -21.9142 20
    endloop
  endfacet
  facet normal -0.956941 0.290282 0
    outer loop
      vertex -22.396 21.1065 20
      vertex -22.3478 21.2654 22.001
      vertex -22.3478 21.2654 20
    endloop
  endfacet
  facet normal -0.956939 0.290288 0
    outer loop
      vertex -22.4616 20.8902 22.001
      vertex -22.396 21.1065 20
      vertex -22.4616 20.8902 20
    endloop
  endfacet
  facet normal -0.95694 0.290286 -3.4315e-007
    outer loop
      vertex -22.396 21.1065 20
      vertex -22.4616 20.8902 22.001
      vertex -22.3478 21.2654 22.001
    endloop
  endfacet
  facet normal -0.881925 0.471389 0
    outer loop
      vertex -22.2419 21.4635 20
      vertex -22.1629 21.6111 22.001
      vertex -22.1629 21.6111 20
    endloop
  endfacet
  facet normal -0.88192 0.4714 0
    outer loop
      vertex -22.3478 21.2654 22.001
      vertex -22.2419 21.4635 20
      vertex -22.3478 21.2654 20
    endloop
  endfacet
  facet normal -0.881922 0.471395 -5.63026e-007
    outer loop
      vertex -22.2419 21.4635 20
      vertex -22.3478 21.2654 22.001
      vertex -22.1629 21.6111 22.001
    endloop
  endfacet
  facet normal -0.290283 0.956941 0
    outer loop
      vertex -21.0492 22.4133 22.001
      vertex -21.2654 22.3478 21.3361
      vertex -21.2654 22.3478 22.001
    endloop
  endfacet
  facet normal 0.290283 0.956941 -0
    outer loop
      vertex 21.2654 22.3478 21.3361
      vertex 21.0492 22.4133 22.001
      vertex 21.2654 22.3478 22.001
    endloop
  endfacet
  facet normal 0.956939 -0.290288 0
    outer loop
      vertex 22.4616 -20.8902 22.001
      vertex 22.396 -21.1065 20
      vertex 22.4616 -20.8902 20
    endloop
  endfacet
  facet normal 0.95694 -0.290286 -3.4315e-007
    outer loop
      vertex 22.3478 -21.2654 22.001
      vertex 22.396 -21.1065 20
      vertex 22.4616 -20.8902 22.001
    endloop
  endfacet
  facet normal 0.956941 -0.290282 0
    outer loop
      vertex 22.396 -21.1065 20
      vertex 22.3478 -21.2654 22.001
      vertex 22.3478 -21.2654 20
    endloop
  endfacet
  facet normal 0.471395 0.881922 0
    outer loop
      vertex 21.6111 22.1629 22.001
      vertex 21.2654 22.3478 21.3361
      vertex 21.2654 22.3478 22.001
    endloop
  endfacet
  facet normal 0.471395 0.881922 0
    outer loop
      vertex 21.2654 22.3478 21.3361
      vertex 21.6111 22.1629 22.001
      vertex 21.6111 22.1629 20.2728
    endloop
  endfacet
  facet normal 0.634395 0.773009 0
    outer loop
      vertex 21.9142 21.9142 22.001
      vertex 21.6111 22.1629 20.2728
      vertex 21.6111 22.1629 22.001
    endloop
  endfacet
  facet normal 0.634395 0.773009 -0
    outer loop
      vertex 21.9142 21.9142 20
      vertex 21.6111 22.1629 20.2728
      vertex 21.9142 21.9142 22.001
    endloop
  endfacet
  facet normal 0.634397 0.773007 4.48884e-006
    outer loop
      vertex 21.7149 22.0778 20
      vertex 21.6111 22.1629 20.2728
      vertex 21.9142 21.9142 20
    endloop
  endfacet
  facet normal 0.634327 0.773065 -4.03196e-005
    outer loop
      vertex 21.6111 22.1629 20.2728
      vertex 21.7149 22.0778 20
      vertex 21.6998 22.0901 20
    endloop
  endfacet
  facet normal 0.881925 0.471389 0
    outer loop
      vertex 22.1629 21.6111 22.001
      vertex 22.2419 21.4635 20
      vertex 22.1629 21.6111 20
    endloop
  endfacet
  facet normal 0.881922 0.471395 -5.63026e-007
    outer loop
      vertex 22.3478 21.2654 22.001
      vertex 22.2419 21.4635 20
      vertex 22.1629 21.6111 22.001
    endloop
  endfacet
  facet normal 0.88192 0.4714 0
    outer loop
      vertex 22.2419 21.4635 20
      vertex 22.3478 21.2654 22.001
      vertex 22.3478 21.2654 20
    endloop
  endfacet
  facet normal 0.956941 0.290282 0
    outer loop
      vertex 22.3478 21.2654 22.001
      vertex 22.396 21.1065 20
      vertex 22.3478 21.2654 20
    endloop
  endfacet
  facet normal 0.95694 0.290286 -3.4315e-007
    outer loop
      vertex 22.4616 20.8902 22.001
      vertex 22.396 21.1065 20
      vertex 22.3478 21.2654 22.001
    endloop
  endfacet
  facet normal 0.956939 0.290288 0
    outer loop
      vertex 22.396 21.1065 20
      vertex 22.4616 20.8902 22.001
      vertex 22.4616 20.8902 20
    endloop
  endfacet
  facet normal 0.995185 0.0980167 0
    outer loop
      vertex 22.5 20.5 22.001
      vertex 22.4616 20.8902 20
      vertex 22.4616 20.8902 22.001
    endloop
  endfacet
  facet normal 0.995185 0.0980167 0
    outer loop
      vertex 22.4616 20.8902 20
      vertex 22.5 20.5 22.001
      vertex 22.5 20.5 20
    endloop
  endfacet
  facet normal 0.950986 -1.61775e-005 -0.309234
    outer loop
      vertex -21.6998 22.0901 20
      vertex -21.2654 22.3478 21.3361
      vertex -21.0492 22.4133 22.001
    endloop
  endfacet
  facet normal 0.95098 9.11474e-005 -0.309253
    outer loop
      vertex -21.2654 22.3478 21.3361
      vertex -21.6998 22.0901 20
      vertex -21.6111 22.1629 20.2728
    endloop
  endfacet
  facet normal 0.950985 0 -0.309237
    outer loop
      vertex -21.0492 -20.4 22.001
      vertex -21.6998 22.0901 20
      vertex -21.0492 22.4133 22.001
    endloop
  endfacet
  facet normal 0.950985 0 -0.309237
    outer loop
      vertex -21.6998 22.0901 20
      vertex -21.0492 -20.4 22.001
      vertex -21.6998 -20.4 20
    endloop
  endfacet
  facet normal 0 1 0
    outer loop
      vertex 20.5 -20.4 20
      vertex 21.0492 -20.4 22.001
      vertex 21.6998 -20.4 20
    endloop
  endfacet
  facet normal 0 1 0
    outer loop
      vertex 21.0492 -20.4 22.001
      vertex 20.5 -20.4 20
      vertex -21.0492 -20.4 22.001
    endloop
  endfacet
  facet normal 0 1 -0
    outer loop
      vertex -20.5 -20.4 20
      vertex -21.0492 -20.4 22.001
      vertex 20.5 -20.4 20
    endloop
  endfacet
  facet normal 0 1 0
    outer loop
      vertex -21.0492 -20.4 22.001
      vertex -20.5 -20.4 20
      vertex -21.6998 -20.4 20
    endloop
  endfacet
  facet normal -0.95098 9.11474e-005 -0.309253
    outer loop
      vertex 21.6998 22.0901 20
      vertex 21.2654 22.3478 21.3361
      vertex 21.6111 22.1629 20.2728
    endloop
  endfacet
  facet normal -0.950986 -1.61775e-005 -0.309234
    outer loop
      vertex 21.2654 22.3478 21.3361
      vertex 21.6998 22.0901 20
      vertex 21.0492 22.4133 22.001
    endloop
  endfacet
  facet normal -0.950985 0 -0.309237
    outer loop
      vertex 21.0492 -20.4 22.001
      vertex 21.6998 22.0901 20
      vertex 21.6998 -20.4 20
    endloop
  endfacet
  facet normal -0.950985 0 -0.309237
    outer loop
      vertex 21.6998 22.0901 20
      vertex 21.0492 -20.4 22.001
      vertex 21.0492 22.4133 22.001
    endloop
  endfacet
  facet normal 0 0 -1
    outer loop
      vertex 20.5 -22.5 0
      vertex 22.5 -20.5 0
      vertex 22.4616 -20.8902 0
    endloop
  endfacet
  facet normal -0 0 -1
    outer loop
      vertex 22.5 -20.5 0
      vertex 20.5 -22.5 0
      vertex 22.5 20.5 0
    endloop
  endfacet
  facet normal 0 0 -1
    outer loop
      vertex 20.5 -22.5 0
      vertex 22.4616 -20.8902 0
      vertex 22.3478 -21.2654 0
    endloop
  endfacet
  facet normal 0 0 -1
    outer loop
      vertex 20.5 22.5 0
      vertex 22.5 20.5 0
      vertex 20.5 -22.5 0
    endloop
  endfacet
  facet normal 0 0 -1
    outer loop
      vertex 20.5 -22.5 0
      vertex 22.3478 -21.2654 0
      vertex 22.1629 -21.6111 0
    endloop
  endfacet
  facet normal 0 0 -1
    outer loop
      vertex 22.5 20.5 0
      vertex 20.5 22.5 0
      vertex 22.4616 20.8902 0
    endloop
  endfacet
  facet normal 0 0 -1
    outer loop
      vertex 20.5 -22.5 0
      vertex 22.1629 -21.6111 0
      vertex 21.9142 -21.9142 0
    endloop
  endfacet
  facet normal 0 0 -1
    outer loop
      vertex 22.4616 20.8902 0
      vertex 20.5 22.5 0
      vertex 22.3478 21.2654 0
    endloop
  endfacet
  facet normal 0 0 -1
    outer loop
      vertex 20.5 -22.5 0
      vertex 21.9142 -21.9142 0
      vertex 21.6111 -22.1629 0
    endloop
  endfacet
  facet normal 0 0 -1
    outer loop
      vertex 22.3478 21.2654 0
      vertex 20.5 22.5 0
      vertex 22.1629 21.6111 0
    endloop
  endfacet
  facet normal 0 0 -1
    outer loop
      vertex 20.5 -22.5 0
      vertex 21.6111 -22.1629 0
      vertex 21.2654 -22.3478 0
    endloop
  endfacet
  facet normal 0 0 -1
    outer loop
      vertex 22.1629 21.6111 0
      vertex 20.5 22.5 0
      vertex 21.9142 21.9142 0
    endloop
  endfacet
  facet normal 0 0 -1
    outer loop
      vertex 20.5 -22.5 0
      vertex 21.2654 -22.3478 0
      vertex 20.8902 -22.4616 0
    endloop
  endfacet
  facet normal 0 0 -1
    outer loop
      vertex 21.9142 21.9142 0
      vertex 20.5 22.5 0
      vertex 21.6111 22.1629 0
    endloop
  endfacet
  facet normal 0 0 -1
    outer loop
      vertex 21.6111 22.1629 0
      vertex 20.5 22.5 0
      vertex 21.2654 22.3478 0
    endloop
  endfacet
  facet normal 0 0 -1
    outer loop
      vertex 21.2654 22.3478 0
      vertex 20.5 22.5 0
      vertex 20.8902 22.4616 0
    endloop
  endfacet
  facet normal 0 0 -1
    outer loop
      vertex -20.5 -22.5 0
      vertex 20.5 22.5 0
      vertex 20.5 -22.5 0
    endloop
  endfacet
  facet normal 0 0 -1
    outer loop
      vertex -20.5 -22.5 0
      vertex -20.5 22.5 0
      vertex 20.5 22.5 0
    endloop
  endfacet
  facet normal 0 0 -1
    outer loop
      vertex -22.5 -20.5 0
      vertex -20.5 -22.5 0
      vertex -20.8902 -22.4616 0
    endloop
  endfacet
  facet normal 0 0 -1
    outer loop
      vertex -20.5 -22.5 0
      vertex -22.5 -20.5 0
      vertex -20.5 22.5 0
    endloop
  endfacet
  facet normal 0 0 -1
    outer loop
      vertex -22.5 -20.5 0
      vertex -20.8902 -22.4616 0
      vertex -21.2654 -22.3478 0
    endloop
  endfacet
  facet normal 0 0 -1
    outer loop
      vertex -22.5 20.5 0
      vertex -20.5 22.5 0
      vertex -22.5 -20.5 0
    endloop
  endfacet
  facet normal 0 0 -1
    outer loop
      vertex -22.5 -20.5 0
      vertex -21.2654 -22.3478 0
      vertex -21.6111 -22.1629 0
    endloop
  endfacet
  facet normal 0 0 -1
    outer loop
      vertex -20.5 22.5 0
      vertex -22.5 20.5 0
      vertex -20.8902 22.4616 0
    endloop
  endfacet
  facet normal 0 0 -1
    outer loop
      vertex -22.5 -20.5 0
      vertex -21.6111 -22.1629 0
      vertex -21.9142 -21.9142 0
    endloop
  endfacet
  facet normal 0 0 -1
    outer loop
      vertex -20.8902 22.4616 0
      vertex -22.5 20.5 0
      vertex -21.2654 22.3478 0
    endloop
  endfacet
  facet normal 0 0 -1
    outer loop
      vertex -22.5 -20.5 0
      vertex -21.9142 -21.9142 0
      vertex -22.1629 -21.6111 0
    endloop
  endfacet
  facet normal 0 0 -1
    outer loop
      vertex -21.2654 22.3478 0
      vertex -22.5 20.5 0
      vertex -21.6111 22.1629 0
    endloop
  endfacet
  facet normal 0 0 -1
    outer loop
      vertex -22.5 -20.5 0
      vertex -22.1629 -21.6111 0
      vertex -22.3478 -21.2654 0
    endloop
  endfacet
  facet normal 0 0 -1
    outer loop
      vertex -21.6111 22.1629 0
      vertex -22.5 20.5 0
      vertex -21.9142 21.9142 0
    endloop
  endfacet
  facet normal 0 0 -1
    outer loop
      vertex -22.5 -20.5 0
      vertex -22.3478 -21.2654 0
      vertex -22.4616 -20.8902 0
    endloop
  endfacet
  facet normal 0 0 -1
    outer loop
      vertex -21.9142 21.9142 0
      vertex -22.5 20.5 0
      vertex -22.1629 21.6111 0
    endloop
  endfacet
  facet normal 0 0 -1
    outer loop
      vertex -22.1629 21.6111 0
      vertex -22.5 20.5 0
      vertex -22.3478 21.2654 0
    endloop
  endfacet
  facet normal 0 0 -1
    outer loop
      vertex -22.3478 21.2654 0
      vertex -22.5 20.5 0
      vertex -22.4616 20.8902 0
    endloop
  endfacet
  facet normal 0.29026 -0.956948 0
    outer loop
      vertex 20.8902 -22.4616 0
      vertex 21.1065 -22.396 20
      vertex 20.8902 -22.4616 20
    endloop
  endfacet
  facet normal 0.29026 -0.956948 -3.3182e-009
    outer loop
      vertex 21.2654 -22.3478 0
      vertex 21.1065 -22.396 20
      vertex 20.8902 -22.4616 0
    endloop
  endfacet
  facet normal 0.290261 -0.956948 0
    outer loop
      vertex 21.1065 -22.396 20
      vertex 21.2654 -22.3478 0
      vertex 21.2654 -22.3478 20
    endloop
  endfacet
  facet normal 0.471413 -0.881913 0
    outer loop
      vertex 21.2654 -22.3478 0
      vertex 21.4635 -22.2419 20
      vertex 21.2654 -22.3478 20
    endloop
  endfacet
  facet normal 0.471406 -0.881916 8.21861e-008
    outer loop
      vertex 21.4635 -22.2419 20
      vertex 21.2654 -22.3478 0
      vertex 21.6111 -22.1629 20
    endloop
  endfacet
  facet normal 0.47141 -0.881914 0
    outer loop
      vertex 21.6111 -22.1629 20
      vertex 21.2654 -22.3478 0
      vertex 21.6111 -22.1629 0
    endloop
  endfacet
  facet normal 0.634379 -0.773022 0
    outer loop
      vertex 21.6111 -22.1629 0
      vertex 21.7149 -22.0778 20
      vertex 21.6111 -22.1629 20
    endloop
  endfacet
  facet normal 0.634389 -0.773014 -9.14691e-008
    outer loop
      vertex 21.7149 -22.0778 20
      vertex 21.6111 -22.1629 0
      vertex 21.9142 -21.9142 20
    endloop
  endfacet
  facet normal 0.634386 -0.773017 0
    outer loop
      vertex 21.9142 -21.9142 20
      vertex 21.6111 -22.1629 0
      vertex 21.9142 -21.9142 0
    endloop
  endfacet
  facet normal 0.773022 -0.634379 0
    outer loop
      vertex 22.0778 -21.7149 20
      vertex 22.1629 -21.6111 0
      vertex 22.1629 -21.6111 20
    endloop
  endfacet
  facet normal 0.773014 -0.634389 -9.14691e-008
    outer loop
      vertex 21.9142 -21.9142 20
      vertex 22.1629 -21.6111 0
      vertex 22.0778 -21.7149 20
    endloop
  endfacet
  facet normal 0.773017 -0.634386 0
    outer loop
      vertex 22.1629 -21.6111 0
      vertex 21.9142 -21.9142 20
      vertex 21.9142 -21.9142 0
    endloop
  endfacet
  facet normal 0.881913 -0.471413 0
    outer loop
      vertex 22.2419 -21.4635 20
      vertex 22.3478 -21.2654 0
      vertex 22.3478 -21.2654 20
    endloop
  endfacet
  facet normal 0.881916 -0.471406 8.21861e-008
    outer loop
      vertex 22.1629 -21.6111 20
      vertex 22.3478 -21.2654 0
      vertex 22.2419 -21.4635 20
    endloop
  endfacet
  facet normal 0.881914 -0.47141 0
    outer loop
      vertex 22.3478 -21.2654 0
      vertex 22.1629 -21.6111 20
      vertex 22.1629 -21.6111 0
    endloop
  endfacet
  facet normal 0.956948 -0.29026 0
    outer loop
      vertex 22.396 -21.1065 20
      vertex 22.4616 -20.8902 0
      vertex 22.4616 -20.8902 20
    endloop
  endfacet
  facet normal 0.956948 -0.290261 0
    outer loop
      vertex 22.3478 -21.2654 0
      vertex 22.396 -21.1065 20
      vertex 22.3478 -21.2654 20
    endloop
  endfacet
  facet normal 0.956948 -0.29026 -3.3182e-009
    outer loop
      vertex 22.396 -21.1065 20
      vertex 22.3478 -21.2654 0
      vertex 22.4616 -20.8902 0
    endloop
  endfacet
  facet normal 0.995183 -0.0980355 0
    outer loop
      vertex 22.4616 -20.8902 20
      vertex 22.5 -20.5 0
      vertex 22.5 -20.5 20
    endloop
  endfacet
  facet normal 0.995183 -0.0980355 0
    outer loop
      vertex 22.5 -20.5 0
      vertex 22.4616 -20.8902 20
      vertex 22.4616 -20.8902 0
    endloop
  endfacet
  facet normal 0.995183 0.0980355 0
    outer loop
      vertex 22.5 20.5 20
      vertex 22.4616 20.8902 0
      vertex 22.4616 20.8902 20
    endloop
  endfacet
  facet normal 0.995183 0.0980355 0
    outer loop
      vertex 22.4616 20.8902 0
      vertex 22.5 20.5 20
      vertex 22.5 20.5 0
    endloop
  endfacet
  facet normal 0.956948 0.290261 0
    outer loop
      vertex 22.396 21.1065 20
      vertex 22.3478 21.2654 0
      vertex 22.3478 21.2654 20
    endloop
  endfacet
  facet normal 0.956948 0.29026 -5.75581e-009
    outer loop
      vertex 22.4616 20.8902 20
      vertex 22.3478 21.2654 0
      vertex 22.396 21.1065 20
    endloop
  endfacet
  facet normal 0.956948 0.29026 0
    outer loop
      vertex 22.3478 21.2654 0
      vertex 22.4616 20.8902 20
      vertex 22.4616 20.8902 0
    endloop
  endfacet
  facet normal 0.881916 0.471406 0
    outer loop
      vertex 22.2419 21.4635 20
      vertex 22.1629 21.6111 0
      vertex 22.1629 21.6111 20
    endloop
  endfacet
  facet normal 0.881913 0.471413 6.12408e-008
    outer loop
      vertex 22.3478 21.2654 20
      vertex 22.1629 21.6111 0
      vertex 22.2419 21.4635 20
    endloop
  endfacet
  facet normal 0.881914 0.47141 0
    outer loop
      vertex 22.1629 21.6111 0
      vertex 22.3478 21.2654 20
      vertex 22.3478 21.2654 0
    endloop
  endfacet
  facet normal 0.773014 0.634389 0
    outer loop
      vertex 22.0778 21.7149 20
      vertex 21.9142 21.9142 0
      vertex 21.9142 21.9142 20
    endloop
  endfacet
  facet normal 0.773022 0.634379 -1.75615e-007
    outer loop
      vertex 22.1629 21.6111 20
      vertex 21.9142 21.9142 0
      vertex 22.0778 21.7149 20
    endloop
  endfacet
  facet normal 0.773017 0.634386 0
    outer loop
      vertex 21.9142 21.9142 0
      vertex 22.1629 21.6111 20
      vertex 22.1629 21.6111 0
    endloop
  endfacet
  facet normal 0.634389 0.773014 -0
    outer loop
      vertex 21.9142 21.9142 0
      vertex 21.7149 22.0778 20
      vertex 21.9142 21.9142 20
    endloop
  endfacet
  facet normal 0.634327 0.773065 -1.03902e-006
    outer loop
      vertex 21.7149 22.0778 20
      vertex 21.9142 21.9142 0
      vertex 21.6998 22.0901 20
    endloop
  endfacet
  facet normal 0.634386 0.773017 1.40374e-008
    outer loop
      vertex 21.6111 22.1629 0
      vertex 21.6998 22.0901 20
      vertex 21.9142 21.9142 0
    endloop
  endfacet
  facet normal 0.634388 0.773015 0
    outer loop
      vertex 21.6998 22.0901 20
      vertex 21.6111 22.1629 0
      vertex 21.6111 22.1629 20
    endloop
  endfacet
  facet normal 0.47141 0.881914 -0
    outer loop
      vertex 21.6111 22.1629 0
      vertex 21.2654 22.3478 20
      vertex 21.6111 22.1629 20
    endloop
  endfacet
  facet normal 0.47141 0.881914 0
    outer loop
      vertex 21.2654 22.3478 20
      vertex 21.6111 22.1629 0
      vertex 21.2654 22.3478 0
    endloop
  endfacet
  facet normal 0.29026 0.956948 -0
    outer loop
      vertex 21.2654 22.3478 0
      vertex 20.8902 22.4616 20
      vertex 21.2654 22.3478 20
    endloop
  endfacet
  facet normal 0.29026 0.956948 0
    outer loop
      vertex 20.8902 22.4616 20
      vertex 21.2654 22.3478 0
      vertex 20.8902 22.4616 0
    endloop
  endfacet
  facet normal 0.0980355 0.995183 -0
    outer loop
      vertex 20.8902 22.4616 0
      vertex 20.5 22.5 20
      vertex 20.8902 22.4616 20
    endloop
  endfacet
  facet normal 0.0980355 0.995183 0
    outer loop
      vertex 20.5 22.5 20
      vertex 20.8902 22.4616 0
      vertex 20.5 22.5 0
    endloop
  endfacet
  facet normal 0 1 -0
    outer loop
      vertex 20.5 22.5 0
      vertex -20.5 22.5 20
      vertex 20.5 22.5 20
    endloop
  endfacet
  facet normal 0 1 0
    outer loop
      vertex -20.5 22.5 20
      vertex 20.5 22.5 0
      vertex -20.5 22.5 0
    endloop
  endfacet
  facet normal -0.0980355 0.995183 0
    outer loop
      vertex -20.5 22.5 0
      vertex -20.8902 22.4616 20
      vertex -20.5 22.5 20
    endloop
  endfacet
  facet normal -0.0980355 0.995183 0
    outer loop
      vertex -20.8902 22.4616 20
      vertex -20.5 22.5 0
      vertex -20.8902 22.4616 0
    endloop
  endfacet
  facet normal -0.29026 0.956948 0
    outer loop
      vertex -20.8902 22.4616 0
      vertex -21.2654 22.3478 20
      vertex -20.8902 22.4616 20
    endloop
  endfacet
  facet normal -0.29026 0.956948 0
    outer loop
      vertex -21.2654 22.3478 20
      vertex -20.8902 22.4616 0
      vertex -21.2654 22.3478 0
    endloop
  endfacet
  facet normal -0.47141 0.881914 0
    outer loop
      vertex -21.2654 22.3478 0
      vertex -21.6111 22.1629 20
      vertex -21.2654 22.3478 20
    endloop
  endfacet
  facet normal -0.47141 0.881914 0
    outer loop
      vertex -21.6111 22.1629 20
      vertex -21.2654 22.3478 0
      vertex -21.6111 22.1629 0
    endloop
  endfacet
  facet normal 0 0 1
    outer loop
      vertex -21.6111 22.1629 20
      vertex -21.7149 22.0778 20
      vertex -21.6998 22.0901 20
    endloop
  endfacet
  facet normal -0.634379 0.773022 0
    outer loop
      vertex -21.6111 22.1629 0
      vertex -21.7149 22.0778 20
      vertex -21.6111 22.1629 20
    endloop
  endfacet
  facet normal -0.634389 0.773014 -9.14691e-008
    outer loop
      vertex -21.7149 22.0778 20
      vertex -21.6111 22.1629 0
      vertex -21.9142 21.9142 20
    endloop
  endfacet
  facet normal -0.634386 0.773017 0
    outer loop
      vertex -21.9142 21.9142 20
      vertex -21.6111 22.1629 0
      vertex -21.9142 21.9142 0
    endloop
  endfacet
  facet normal -0.773014 0.634389 0
    outer loop
      vertex -21.9142 21.9142 0
      vertex -22.0778 21.7149 20
      vertex -21.9142 21.9142 20
    endloop
  endfacet
  facet normal -0.773017 0.634386 -6.01434e-008
    outer loop
      vertex -22.1629 21.6111 0
      vertex -22.0778 21.7149 20
      vertex -21.9142 21.9142 0
    endloop
  endfacet
  facet normal -0.773022 0.634379 0
    outer loop
      vertex -22.0778 21.7149 20
      vertex -22.1629 21.6111 0
      vertex -22.1629 21.6111 20
    endloop
  endfacet
  facet normal -0.881916 0.471406 0
    outer loop
      vertex -22.1629 21.6111 0
      vertex -22.2419 21.4635 20
      vertex -22.1629 21.6111 20
    endloop
  endfacet
  facet normal -0.881914 0.47141 3.50921e-008
    outer loop
      vertex -22.3478 21.2654 0
      vertex -22.2419 21.4635 20
      vertex -22.1629 21.6111 0
    endloop
  endfacet
  facet normal -0.881913 0.471413 0
    outer loop
      vertex -22.2419 21.4635 20
      vertex -22.3478 21.2654 0
      vertex -22.3478 21.2654 20
    endloop
  endfacet
  facet normal -0.956948 0.290261 0
    outer loop
      vertex -22.3478 21.2654 0
      vertex -22.396 21.1065 20
      vertex -22.3478 21.2654 20
    endloop
  endfacet
  facet normal -0.956948 0.29026 -3.3182e-009
    outer loop
      vertex -22.4616 20.8902 0
      vertex -22.396 21.1065 20
      vertex -22.3478 21.2654 0
    endloop
  endfacet
  facet normal -0.956948 0.29026 0
    outer loop
      vertex -22.396 21.1065 20
      vertex -22.4616 20.8902 0
      vertex -22.4616 20.8902 20
    endloop
  endfacet
  facet normal -0.995183 0.0980355 0
    outer loop
      vertex -22.5 20.5 0
      vertex -22.4616 20.8902 20
      vertex -22.4616 20.8902 0
    endloop
  endfacet
  facet normal -0.995183 0.0980355 0
    outer loop
      vertex -22.4616 20.8902 20
      vertex -22.5 20.5 0
      vertex -22.5 20.5 20
    endloop
  endfacet
  facet normal -0.995183 -0.0980355 0
    outer loop
      vertex -22.4616 -20.8902 0
      vertex -22.5 -20.5 20
      vertex -22.5 -20.5 0
    endloop
  endfacet
  facet normal -0.995183 -0.0980355 0
    outer loop
      vertex -22.5 -20.5 20
      vertex -22.4616 -20.8902 0
      vertex -22.4616 -20.8902 20
    endloop
  endfacet
  facet normal -0.956948 -0.29026 0
    outer loop
      vertex -22.4616 -20.8902 0
      vertex -22.396 -21.1065 20
      vertex -22.4616 -20.8902 20
    endloop
  endfacet
  facet normal -0.956948 -0.29026 -3.3182e-009
    outer loop
      vertex -22.3478 -21.2654 0
      vertex -22.396 -21.1065 20
      vertex -22.4616 -20.8902 0
    endloop
  endfacet
  facet normal -0.956948 -0.290261 0
    outer loop
      vertex -22.396 -21.1065 20
      vertex -22.3478 -21.2654 0
      vertex -22.3478 -21.2654 20
    endloop
  endfacet
  facet normal -0.881913 -0.471413 0
    outer loop
      vertex -22.3478 -21.2654 0
      vertex -22.2419 -21.4635 20
      vertex -22.3478 -21.2654 20
    endloop
  endfacet
  facet normal -0.881914 -0.47141 3.50921e-008
    outer loop
      vertex -22.1629 -21.6111 0
      vertex -22.2419 -21.4635 20
      vertex -22.3478 -21.2654 0
    endloop
  endfacet
  facet normal -0.881916 -0.471406 0
    outer loop
      vertex -22.2419 -21.4635 20
      vertex -22.1629 -21.6111 0
      vertex -22.1629 -21.6111 20
    endloop
  endfacet
  facet normal -0.773022 -0.634379 0
    outer loop
      vertex -22.1629 -21.6111 0
      vertex -22.0778 -21.7149 20
      vertex -22.1629 -21.6111 20
    endloop
  endfacet
  facet normal -0.773017 -0.634386 -6.01434e-008
    outer loop
      vertex -21.9142 -21.9142 0
      vertex -22.0778 -21.7149 20
      vertex -22.1629 -21.6111 0
    endloop
  endfacet
  facet normal -0.773014 -0.634389 0
    outer loop
      vertex -22.0778 -21.7149 20
      vertex -21.9142 -21.9142 0
      vertex -21.9142 -21.9142 20
    endloop
  endfacet
  facet normal -0.634389 -0.773014 0
    outer loop
      vertex -21.9142 -21.9142 0
      vertex -21.7149 -22.0778 20
      vertex -21.9142 -21.9142 20
    endloop
  endfacet
  facet normal -0.634379 -0.773022 -1.75615e-007
    outer loop
      vertex -21.7149 -22.0778 20
      vertex -21.9142 -21.9142 0
      vertex -21.6111 -22.1629 20
    endloop
  endfacet
  facet normal -0.634386 -0.773017 -0
    outer loop
      vertex -21.6111 -22.1629 20
      vertex -21.9142 -21.9142 0
      vertex -21.6111 -22.1629 0
    endloop
  endfacet
  facet normal -0.471406 -0.881916 0
    outer loop
      vertex -21.6111 -22.1629 0
      vertex -21.4635 -22.2419 20
      vertex -21.6111 -22.1629 20
    endloop
  endfacet
  facet normal -0.471413 -0.881913 6.12408e-008
    outer loop
      vertex -21.4635 -22.2419 20
      vertex -21.6111 -22.1629 0
      vertex -21.2654 -22.3478 20
    endloop
  endfacet
  facet normal -0.47141 -0.881914 -0
    outer loop
      vertex -21.2654 -22.3478 20
      vertex -21.6111 -22.1629 0
      vertex -21.2654 -22.3478 0
    endloop
  endfacet
  facet normal -0.290261 -0.956948 0
    outer loop
      vertex -21.2654 -22.3478 0
      vertex -21.1065 -22.396 20
      vertex -21.2654 -22.3478 20
    endloop
  endfacet
  facet normal -0.29026 -0.956948 -5.75581e-009
    outer loop
      vertex -21.1065 -22.396 20
      vertex -21.2654 -22.3478 0
      vertex -20.8902 -22.4616 20
    endloop
  endfacet
  facet normal -0.29026 -0.956948 -0
    outer loop
      vertex -20.8902 -22.4616 20
      vertex -21.2654 -22.3478 0
      vertex -20.8902 -22.4616 0
    endloop
  endfacet
  facet normal -0.0980355 -0.995183 0
    outer loop
      vertex -20.8902 -22.4616 0
      vertex -20.5 -22.5 20
      vertex -20.8902 -22.4616 20
    endloop
  endfacet
  facet normal -0.0980355 -0.995183 -0
    outer loop
      vertex -20.5 -22.5 20
      vertex -20.8902 -22.4616 0
      vertex -20.5 -22.5 0
    endloop
  endfacet
  facet normal 0.0980355 -0.995183 0
    outer loop
      vertex 20.5 -22.5 0
      vertex 20.8902 -22.4616 20
      vertex 20.5 -22.5 20
    endloop
  endfacet
  facet normal 0.0980355 -0.995183 0
    outer loop
      vertex 20.8902 -22.4616 20
      vertex 20.5 -22.5 0
      vertex 20.8902 -22.4616 0
    endloop
  endfacet
  facet normal 1 -0 0
    outer loop
      vertex -20.5 -20.4 20
      vertex -20.5 20.5 1
      vertex -20.5 20.5 20
    endloop
  endfacet
  facet normal 1 0 0
    outer loop
      vertex -20.5 -20.5 1
      vertex -20.5 -20.4 20
      vertex -20.5 -20.5 20
    endloop
  endfacet
  facet normal 1 0 0
    outer loop
      vertex -20.5 -20.4 20
      vertex -20.5 -20.5 1
      vertex -20.5 20.5 1
    endloop
  endfacet
  facet normal 0 -1 0
    outer loop
      vertex -20.5 20.5 1
      vertex 20.5 20.5 20
      vertex -20.5 20.5 20
    endloop
  endfacet
  facet normal 0 -1 -0
    outer loop
      vertex 20.5 20.5 20
      vertex -20.5 20.5 1
      vertex 20.5 20.5 1
    endloop
  endfacet
  facet normal -1 0 0
    outer loop
      vertex 20.5 20.5 1
      vertex 20.5 -20.4 20
      vertex 20.5 20.5 20
    endloop
  endfacet
  facet normal -1 0 0
    outer loop
      vertex 20.5 -20.5 1
      vertex 20.5 -20.4 20
      vertex 20.5 20.5 1
    endloop
  endfacet
  facet normal -1 -0 0
    outer loop
      vertex 20.5 -20.4 20
      vertex 20.5 -20.5 1
      vertex 20.5 -20.5 20
    endloop
  endfacet
  facet normal 0 1 -0
    outer loop
      vertex 20.5 -20.5 1
      vertex -20.5 -20.5 20
      vertex 20.5 -20.5 20
    endloop
  endfacet
  facet normal 0 1 0
    outer loop
      vertex -20.5 -20.5 20
      vertex 20.5 -20.5 1
      vertex -20.5 -20.5 1
    endloop
  endfacet
  facet normal -0 0 1
    outer loop
      vertex -20.5 20.5 1
      vertex 20.5 -20.5 1
      vertex 20.5 20.5 1
    endloop
  endfacet
  facet normal 0 0 1
    outer loop
      vertex 20.5 -20.5 1
      vertex -20.5 20.5 1
      vertex -20.5 -20.5 1
    endloop
  endfacet
  facet normal 0 0 -1
    outer loop
      vertex 23.5 -20.4 -0.000499725
      vertex 66.5 22.6 -0.000499725
      vertex 66.5 -20.4 -0.000499725
    endloop
  endfacet
  facet normal -0 0 -1
    outer loop
      vertex 66.5 22.6 -0.000499725
      vertex 23.5 -20.4 -0.000499725
      vertex 23.5 22.6 -0.000499725
    endloop
  endfacet
  facet normal -0.951731 0 0.306934
    outer loop
      vertex 23.5 -20.4 -0.000499725
      vertex 24.145 22.6 1.9995
      vertex 23.5 22.6 -0.000499725
    endloop
  endfacet
  facet normal -0.951731 0 0.306934
    outer loop
      vertex 24.145 22.6 1.9995
      vertex 23.5 -20.4 -0.000499725
      vertex 24.145 -20.4 1.9995
    endloop
  endfacet
  facet normal 0 -1 0
    outer loop
      vertex 23.5 -20.4 -0.000499725
      vertex 65.855 -20.4 1.9995
      vertex 24.145 -20.4 1.9995
    endloop
  endfacet
  facet normal 0 -1 -0
    outer loop
      vertex 65.855 -20.4 1.9995
      vertex 23.5 -20.4 -0.000499725
      vertex 66.5 -20.4 -0.000499725
    endloop
  endfacet
  facet normal 0 1 0
    outer loop
      vertex 66.5 22.6 -0.000499725
      vertex 24.145 22.6 1.9995
      vertex 65.855 22.6 1.9995
    endloop
  endfacet
  facet normal 0 1 0
    outer loop
      vertex 24.145 22.6 1.9995
      vertex 66.5 22.6 -0.000499725
      vertex 23.5 22.6 -0.000499725
    endloop
  endfacet
  facet normal 0 0 1
    outer loop
      vertex 55.75 -10.75 1.9995
      vertex 37.8333 -15.6759 1.9995
      vertex 52.1667 -15.6759 1.9995
    endloop
  endfacet
  facet normal 0 0 1
    outer loop
      vertex 37.8333 -15.6759 1.9995
      vertex 34.25 -10.75 1.9995
      vertex 37.8333 -16.1759 1.9995
    endloop
  endfacet
  facet normal -0 0 1
    outer loop
      vertex 34.25 -10.75 1.9995
      vertex 37.8333 -15.6759 1.9995
      vertex 55.75 -10.75 1.9995
    endloop
  endfacet
  facet normal 0 0 1
    outer loop
      vertex 65.855 22.6 1.9995
      vertex 55.75 10.75 1.9995
      vertex 65.855 -20.4 1.9995
    endloop
  endfacet
  facet normal 0 0 1
    outer loop
      vertex 65.855 22.6 1.9995
      vertex 34.25 10.75 1.9995
      vertex 55.75 10.75 1.9995
    endloop
  endfacet
  facet normal 0 0 1
    outer loop
      vertex 24.145 -20.4 1.9995
      vertex 34.25 10.75 1.9995
      vertex 24.145 22.6 1.9995
    endloop
  endfacet
  facet normal -0 0 1
    outer loop
      vertex 24.145 22.6 1.9995
      vertex 34.25 10.75 1.9995
      vertex 65.855 22.6 1.9995
    endloop
  endfacet
  facet normal -0 0 1
    outer loop
      vertex 55.75 -10.75 1.9995
      vertex 65.855 -20.4 1.9995
      vertex 55.75 10.75 1.9995
    endloop
  endfacet
  facet normal 0 0 1
    outer loop
      vertex 52.1667 -16.1759 1.9995
      vertex 55.75 -10.75 1.9995
      vertex 52.1667 -15.6759 1.9995
    endloop
  endfacet
  facet normal 0 0 1
    outer loop
      vertex 55.75 -10.75 1.9995
      vertex 52.1667 -16.1759 1.9995
      vertex 65.855 -20.4 1.9995
    endloop
  endfacet
  facet normal -0 0 1
    outer loop
      vertex 37.8333 -16.1759 1.9995
      vertex 65.855 -20.4 1.9995
      vertex 52.1667 -16.1759 1.9995
    endloop
  endfacet
  facet normal 0 0 1
    outer loop
      vertex 37.8333 -16.1759 1.9995
      vertex 24.145 -20.4 1.9995
      vertex 65.855 -20.4 1.9995
    endloop
  endfacet
  facet normal 0 0 1
    outer loop
      vertex 34.25 -10.75 1.9995
      vertex 24.145 -20.4 1.9995
      vertex 37.8333 -16.1759 1.9995
    endloop
  endfacet
  facet normal 0 0 1
    outer loop
      vertex 34.25 10.75 1.9995
      vertex 24.145 -20.4 1.9995
      vertex 34.25 -10.75 1.9995
    endloop
  endfacet
  facet normal 0.95173 -0 0.306935
    outer loop
      vertex 65.855 -20.4 1.9995
      vertex 66.5 22.6 -0.000499725
      vertex 65.855 22.6 1.9995
    endloop
  endfacet
  facet normal 0.95173 0 0.306935
    outer loop
      vertex 66.5 22.6 -0.000499725
      vertex 65.855 -20.4 1.9995
      vertex 66.5 -20.4 -0.000499725
    endloop
  endfacet
  facet normal 1 -0 0
    outer loop
      vertex 37.8333 -16.1759 1.9995
      vertex 37.8333 -15.6759 1.16667
      vertex 37.8333 -15.6759 1.9995
    endloop
  endfacet
  facet normal 1 0 0
    outer loop
      vertex 37.8333 -15.6759 1.16667
      vertex 37.8333 -16.1759 1.9995
      vertex 37.8333 -16.1759 1.16667
    endloop
  endfacet
  facet normal -1 0 0
    outer loop
      vertex 52.1667 -16.1759 1.16667
      vertex 52.1667 -15.6759 1.9995
      vertex 52.1667 -15.6759 1.16667
    endloop
  endfacet
  facet normal -1 -0 0
    outer loop
      vertex 52.1667 -15.6759 1.9995
      vertex 52.1667 -16.1759 1.16667
      vertex 52.1667 -16.1759 1.9995
    endloop
  endfacet
  facet normal 0 -1 0
    outer loop
      vertex 37.8333 -15.6759 1.16667
      vertex 52.1667 -15.6759 1.9995
      vertex 37.8333 -15.6759 1.9995
    endloop
  endfacet
  facet normal 0 -1 -0
    outer loop
      vertex 52.1667 -15.6759 1.9995
      vertex 37.8333 -15.6759 1.16667
      vertex 52.1667 -15.6759 1.16667
    endloop
  endfacet
  facet normal -0 0 1
    outer loop
      vertex 37.8333 -15.6759 1.16667
      vertex 52.1667 -16.1759 1.16667
      vertex 52.1667 -15.6759 1.16667
    endloop
  endfacet
  facet normal 0 0 1
    outer loop
      vertex 52.1667 -16.1759 1.16667
      vertex 37.8333 -15.6759 1.16667
      vertex 37.8333 -16.1759 1.16667
    endloop
  endfacet
  facet normal 0 1 -0
    outer loop
      vertex 52.1667 -16.1759 1.16667
      vertex 37.8333 -16.1759 1.9995
      vertex 52.1667 -16.1759 1.9995
    endloop
  endfacet
  facet normal 0 1 0
    outer loop
      vertex 37.8333 -16.1759 1.9995
      vertex 52.1667 -16.1759 1.16667
      vertex 37.8333 -16.1759 1.16667
    endloop
  endfacet
  facet normal 1 -0 0
    outer loop
      vertex 34.25 -10.75 1.9995
      vertex 34.25 10.75 1.75
      vertex 34.25 10.75 1.9995
    endloop
  endfacet
  facet normal 1 0 0
    outer loop
      vertex 34.25 10.75 1.75
      vertex 34.25 -10.75 1.9995
      vertex 34.25 -10.75 1.75
    endloop
  endfacet
  facet normal -1 0 0
    outer loop
      vertex 55.75 -10.75 1.75
      vertex 55.75 10.75 1.9995
      vertex 55.75 10.75 1.75
    endloop
  endfacet
  facet normal -1 -0 0
    outer loop
      vertex 55.75 10.75 1.9995
      vertex 55.75 -10.75 1.75
      vertex 55.75 -10.75 1.9995
    endloop
  endfacet
  facet normal -0 0 1
    outer loop
      vertex 34.25 10.75 1.75
      vertex 55.75 -10.75 1.75
      vertex 55.75 10.75 1.75
    endloop
  endfacet
  facet normal 0 0 1
    outer loop
      vertex 55.75 -10.75 1.75
      vertex 34.25 10.75 1.75
      vertex 34.25 -10.75 1.75
    endloop
  endfacet
  facet normal 0 1 -0
    outer loop
      vertex 55.75 -10.75 1.75
      vertex 34.25 -10.75 1.9995
      vertex 55.75 -10.75 1.9995
    endloop
  endfacet
  facet normal 0 1 0
    outer loop
      vertex 34.25 -10.75 1.9995
      vertex 55.75 -10.75 1.75
      vertex 34.25 -10.75 1.75
    endloop
  endfacet
  facet normal 0 -1 0
    outer loop
      vertex 34.25 10.75 1.75
      vertex 55.75 10.75 1.9995
      vertex 34.25 10.75 1.9995
    endloop
  endfacet
  facet normal 0 -1 -0
    outer loop
      vertex 55.75 10.75 1.9995
      vertex 34.25 10.75 1.75
      vertex 55.75 10.75 1.75
    endloop
  endfacet
endsolid OpenSCAD_Model
